<?xml version="1.0" standalone="no"?>
<!DOCTYPE svg PUBLIC "-//W3C//DTD SVG 20010904//EN"
 "http://www.w3.org/TR/2001/REC-SVG-20010904/DTD/svg10.dtd">
<svg version="1.0" xmlns="http://www.w3.org/2000/svg"
 width="700.000000pt" height="700.000000pt" viewBox="0 0 700.000000 700.000000"
 preserveAspectRatio="xMidYMid meet">
<metadata>
Created by potrace 1.11, written by Peter Selinger 2001-2013
</metadata>
<g transform="translate(0.000000,700.000000) scale(0.100000,-0.100000)"
fill="#000000" stroke="none">
<path d="M3215 6989 c-748 -64 -1435 -351 -1995 -835 -551 -475 -938 -1101
-1114 -1799 -34 -137 -72 -346 -88 -490 -17 -155 -17 -575 0 -730 63 -570 255
-1100 567 -1570 270 -405 644 -771 1047 -1024 457 -287 944 -456 1503 -523
139 -16 595 -16 730 0 847 103 1555 446 2131 1034 204 208 346 389 490 623
269 439 429 910 496 1460 16 130 16 600 0 730 -73 596 -246 1079 -557 1555
-139 213 -239 336 -449 548 -657 668 -1554 1038 -2496 1031 -91 -1 -210 -6
-265 -10z m585 -977 c162 -499 334 -1030 383 -1179 l88 -273 1252 -2 1251 -3
-289 -210 -290 -210 -3 -565 -2 -565 -212 -212 -213 -213 -422 0 c-233 0 -423
-3 -423 -7 0 -4 135 -423 300 -930 165 -507 300 -924 300 -927 0 -3 -452 323
-1004 725 -553 401 -1010 729 -1016 729 -6 0 -463 -328 -1016 -729 -552 -402
-1004 -728 -1004 -725 0 2 135 420 300 927 165 507 300 925 300 930 0 4 -190
7 -423 7 l-422 0 -213 213 -212 212 -2 565 -3 565 -290 210 -289 210 1251 3
1252 2 90 278 c50 152 222 683 383 1179 161 497 295 903 298 903 3 0 138 -409
300 -908z"/>
<path d="M1030 3640 l0 -350 485 0 485 0 0 -135 0 -135 -447 0 -448 0 110
-110 110 -110 447 0 448 0 0 355 0 355 -485 0 -485 0 0 130 0 130 730 0 730 0
0 -485 0 -485 110 0 110 0 0 485 0 485 215 0 215 0 0 -485 0 -485 110 0 110 0
2 243 3 242 120 3 120 2 245 -245 245 -245 117 0 118 0 0 47 0 48 -197 197
-198 198 198 0 197 0 0 240 0 240 155 0 155 0 2 -482 3 -483 405 -3 405 -2
147 147 148 148 0 447 0 448 -2470 0 -2470 0 0 -350z m3300 0 l0 -130 -375 0
-375 0 0 130 0 130 375 0 375 0 0 -130z m1420 0 l0 -130 -375 0 -375 0 0 130
0 130 375 0 375 0 0 -130z m0 -485 l0 -135 -372 2 -373 3 -3 119 c-1 66 0 126
2 133 4 10 80 13 376 13 l370 0 0 -135z"/>
</g>
</svg>
